<svg xmlns="http://www.w3.org/2000/svg" xmlns:xlink="http://www.w3.org/1999/xlink" width="28" height="28" viewBox="0 0 28 28">
    <defs>
        <path id="a" d="M.25 0H6v5.549H.25z"/>
    </defs>
    <g fill="none" fill-rule="evenodd">
        <path fill="#FFF" d="M27.5 27H.5a.5.5 0 0 0 0 1h27a.5.5 0 0 0 0-1M9.146 12.146a.5.5 0 0 1 .707 0l.68.68 1.38-1.128-1.956-4.402c-.16-.36-.754-.36-.915 0l-1.955 4.402 1.38 1.128.68-.68z"/>
        <path fill="#FFF" d="M1.5 26h16a.499.499 0 0 0 .457-.703l-5.623-12.651-1.518 1.241a.5.5 0 0 1-.67-.033l-.646-.647-.646.647a.5.5 0 0 1-.67.033l-1.518-1.242-5.623 12.652A.499.499 0 0 0 1.5 26M20.146 16.146a.5.5 0 0 1 .707 0l.67.67 1.31-1.145-1.873-4.367c-.159-.369-.762-.369-.92 0l-1.872 4.367 1.31 1.145.668-.67z"/>
        <path fill="#FFF" d="M16.507 19.546L19.38 26h7.12a.5.5 0 0 0 .46-.697l-3.714-8.666-1.417 1.24a.496.496 0 0 1-.682-.024l-.647-.646-.646.646a.5.5 0 0 1-.683.023l-1.417-1.239-1.247 2.91zM12.5 9h14a.5.5 0 0 0 .5-.5C27 6.57 25.43 5 23.5 5h-.535A3.507 3.507 0 0 0 19.5 2a3.507 3.507 0 0 0-3.465 3H15.5C13.57 5 12 6.57 12 8.5a.5.5 0 0 0 .5.5"/>
        <g transform="translate(22)">
            <mask id="b" fill="#fff">
                <use xlink:href="#a"/>
            </mask>
            <path fill="#FFF" d="M2.071 4.5c.95 0 1.811.404 2.49 1.049A2.99 2.99 0 0 0 6.001 3c0-1.654-1.347-3-3-3A3.002 3.002 0 0 0 .25 1.808 4.753 4.753 0 0 1 1.403 4.5h.667z" mask="url(#b)"/>
        </g>
    </g>
</svg>
