<svg xmlns="http://www.w3.org/2000/svg" width="52" height="33" viewBox="0 0 52 33">
    <g fill="none" fill-rule="evenodd">
        <path fill="#53F20E" d="M21.979 7L22 4.234c.025-3.762-7.707-6.088-11.082-2.306-.531.594-1.266 1.74-1.918 2.824C13.504 3.049 19.105 4.463 21.979 7M43 4.752c-.65-1.083-1.387-2.23-1.918-2.824C37.708-1.854 29.973.472 30 4.234L30.021 7C32.894 4.463 38.498 3.049 43 4.752"/>
        <path fill="#FFF" d="M40.794 29.426c-4.202 0-7.62-3.405-7.62-7.59 0-4.186 3.418-7.59 7.62-7.59 4.2 0 7.62 3.404 7.62 7.59 0 4.185-3.42 7.59-7.62 7.59M26 24.146a2.128 2.128 0 0 1-2.13-2.12c0-1.173.956-2.125 2.13-2.125a2.13 2.13 0 0 1 2.132 2.124c0 1.17-.955 2.122-2.132 2.122m-14.791 5.28c-4.202 0-7.621-3.406-7.621-7.591 0-4.186 3.419-7.59 7.62-7.59 4.2 0 7.621 3.404 7.621 7.59 0 4.185-3.42 7.59-7.62 7.59m39.56-12.675s-3.4-7.583-5.357-9.587c-4.553-4.666-14.709-.887-15.74 2.894C28.389 8.544 26 8.689 26 8.689s-2.387-.145-3.67 1.369c-1.032-3.781-11.186-7.56-15.739-2.894-1.96 2.004-5.36 9.587-5.36 9.587A11.066 11.066 0 0 0 0 21.836C0 27.99 5.03 33 11.209 33c5.629 0 10.3-4.156 11.089-9.55a3.976 3.976 0 0 0 7.406 0c.789 5.394 5.461 9.55 11.09 9.55C46.973 33 52 27.99 52 21.836c0-1.83-.445-3.56-1.231-5.085"/>
        <path fill="#53F20E" d="M10.784 25.919h-.26c-1.708 0-3.095-1.19-3.095-2.654v-.224c0-.575-.544-1.041-1.216-1.041C5.544 22 5 22.466 5 23.041v.447c0 .071.008.139.024.205.239 2.27 2.353 4.082 5.001 4.287.077.013.156.02.238.02h.521c.672 0 1.216-.466 1.216-1.04 0-.575-.544-1.041-1.216-1.041M40.785 25.919h-.26c-1.708 0-3.097-1.19-3.097-2.654v-.224c0-.575-.544-1.041-1.215-1.041-.669 0-1.213.466-1.213 1.041v.447c0 .071.008.139.022.205.24 2.27 2.355 4.082 5.003 4.287.077.013.156.02.237.02h.523c.67 0 1.215-.466 1.215-1.04 0-.575-.544-1.041-1.215-1.041"/>
    </g>
</svg>
