<svg xmlns="http://www.w3.org/2000/svg" width="76" height="30" viewBox="0 0 76 30">
    <g fill="none" fill-rule="evenodd">
        <g transform="translate(27)">
            <path fill="#3e4c5b" fill-rule="nonzero" d="M4.762 9.524h2.857v6.666H4.762zM13.616 9.602l-.069-.022a1.406 1.406 0 0 0-.088-.017 1.944 1.944 0 0 0-.389-.04c-1.264 0-2.066.92-2.33 1.275V9.524H8.57v6.666h2.169v-3.636s1.639-2.282 2.33-.606v4.242h2.168v-4.498c0-1.008-.69-1.847-1.622-2.09z"/>
            <circle cx="5.714" cy="6.667" r="1" fill="#3e4c5b" fill-rule="nonzero"/>
            <path stroke="#3e4c5b" d="M.5.5h19v19H.5z"/>
        </g>
        <path stroke="#3e4c5b" d="M.5.5h19v19H.5z"/>
        <g fill="#3e4c5b" fill-rule="nonzero">
            <path d="M15.096 4H5.904C4.854 4 4 4.854 4 5.904v9.192C4 16.146 4.854 17 5.904 17h9.192c1.05 0 1.904-.854 1.904-1.904V5.904C17 4.854 16.146 4 15.096 4zm-4.57 9.902a3.432 3.432 0 0 1-3.428-3.427 3.432 3.432 0 0 1 3.427-3.428 3.432 3.432 0 0 1 3.428 3.428 3.432 3.432 0 0 1-3.428 3.427zm3.808-6.093a1.144 1.144 0 0 1 0-2.285c.63 0 1.143.512 1.143 1.142 0 .63-.513 1.143-1.143 1.143z"/>
            <path d="M14.5 6a.5.5 0 1 0 0 1 .5.5 0 0 0 0-1zM10.5 8A2.503 2.503 0 0 0 8 10.5c0 1.378 1.122 2.5 2.5 2.5s2.5-1.122 2.5-2.5S11.878 8 10.5 8z"/>
        </g>
        <path fill="#3e4c5b" fill-rule="nonzero" d="M72.19 6.001c-.455.21-.944.353-1.458.417a2.64 2.64 0 0 0 1.117-1.463 4.998 4.998 0 0 1-1.614.643 2.487 2.487 0 0 0-1.854-.836c-1.403 0-2.54 1.185-2.54 2.645 0 .207.022.41.066.603-2.11-.11-3.982-1.164-5.235-2.765a2.71 2.71 0 0 0-.343 1.33c0 .918.448 1.728 1.13 2.202a2.463 2.463 0 0 1-1.151-.332v.033c0 1.281.876 2.35 2.037 2.594-.213.06-.437.093-.67.093-.163 0-.322-.017-.478-.05.324 1.053 1.262 1.817 2.373 1.838a4.968 4.968 0 0 1-3.76 1.095 6.973 6.973 0 0 0 3.893 1.19c4.672 0 7.226-4.031 7.226-7.527l-.009-.343c.5-.37.93-.836 1.27-1.367z"/>
        <path stroke="#3e4c5b" d="M56.5.5h19v19h-19z"/>
    </g>
</svg>
