<svg xmlns="http://www.w3.org/2000/svg" xmlns:xlink="http://www.w3.org/1999/xlink" width="116" height="79" viewBox="0 0 116 79">
    <defs>
        <path id="a" d="M.913.045h40.28v16.562H.913z"/>
        <path id="c" d="M0 .935h95.136v16.749H0z"/>
    </defs>
    <g fill="none" fill-rule="evenodd">
        <path fill="#53F20E" d="M91 78h4v-4h-4z"/>
        <g transform="translate(50.182 61.453)">
            <mask id="b" fill="#fff">
                <use xlink:href="#a"/>
            </mask>
            <path fill="#FEFEFE" d="M6.1.045L.913 16.42h4.065l.935-3.207h4.065l.935 3.207h4.064L9.791.045H6.1zm.585 9.825l1.214-4.75h.093l1.216 4.75H6.685zm15.512 6.738c4.042 0 6.1-2.106 6.1-5.732V.045h-3.88v10.62c0 1.545-.468 2.55-2.22 2.55-1.752 0-2.22-1.005-2.22-2.55V.045H16.1v10.831c0 3.626 2.055 5.732 6.097 5.732zm12.852-.187v-6.294h5.607V6.805h-5.607V3.366h6.144V.045H31.17V16.42h3.88z" mask="url(#b)"/>
        </g>
        <path fill="#FEFEFE" d="M8.2 57.747v-6.292h5.607v-3.322H8.2v-3.438h6.145V41.37H4.323v16.376H8.2zm14.368.187c4.16 0 6.169-2.362 6.169-5.988v-4.75c0-3.602-2.009-6.012-6.17-6.012-4.18 0-6.214 2.41-6.214 6.013v4.749c0 3.626 2.034 5.988 6.215 5.988zm0-3.439c-1.705 0-2.312-.96-2.312-2.806v-4.28c0-1.802.607-2.762 2.312-2.762 1.707 0 2.267.96 2.267 2.761v4.281c0 1.847-.56 2.806-2.267 2.806zm8.623-13.124v16.376h3.855v-5.614h1.47l2.78 5.614h4.301l-3.506-6.27c1.309-.585 2.64-1.94 2.64-4.701 0-3.883-2.337-5.405-6.214-5.405H31.19zm3.855 3.324h1.307c1.612 0 2.476.443 2.476 2.08 0 1.52-.817 2.036-2.242 2.036h-1.541v-4.116zM49.74 57.934c4.23 0 6.1-1.964 6.1-5.123 0-5.918-7.594-4.632-7.594-6.995 0-.772.583-1.263 1.844-1.263 1.192 0 2.36.398 3.669 1.17l1.612-2.807c-1.261-.843-3.06-1.732-5.443-1.732-3.551 0-5.467 1.71-5.467 4.774 0 5.776 7.546 4.047 7.546 6.992 0 .82-.63 1.568-2.15 1.568-1.262 0-2.639-.397-4.555-1.286l-1.332 2.925c1.307.795 3.27 1.777 5.77 1.777zm6.985-16.563v3.556h4.253v12.82h3.878v-12.82h4.23V41.37h-12.36zm24.72 16.376v-3.322h-6.144v-3.369h5.607v-3.321h-5.607v-3.04h6.145V41.37H71.42v16.376h10.025zm1.987-16.376v3.556h4.25v12.82h3.88v-12.82h4.229V41.37H83.43zM44.741 21.246h-3.877v16.376h10v-3.555H44.74v-12.82zm12.173 0l-5.187 16.376h4.064l.936-3.206h4.064l.936 3.206h4.064l-5.186-16.376h-3.691zm.584 9.826l1.215-4.75h.092l1.217 4.75h-2.524zM80.3 21.246h-3.738v8.702h-.092l-5.492-8.702h-3.48v16.376h3.738V28.64h.093l5.561 8.983h3.41V21.246zm2.758 0v16.376h6.284c3.763 0 6.331-3.02 6.331-8.235 0-5.661-2.568-8.14-6.821-8.14h-5.794zm3.855 3.322h1.635c2.57 0 3.178 2.432 3.178 4.75 0 2.596-.607 4.98-3.178 4.98h-1.635v-9.73z"/>
        <g>
            <mask id="d" fill="#fff">
                <use xlink:href="#c"/>
            </mask>
            <path fill="#FEFEFE" d="M0 1.121v16.376h6.284c3.763 0 6.331-3.02 6.331-8.235 0-5.662-2.568-8.141-6.821-8.141H0zm3.855 3.322H5.49c2.57 0 3.178 2.432 3.178 4.749 0 2.596-.607 4.981-3.178 4.981H3.855v-9.73zm21.236 13.054v-3.324h-6.144v-3.366h5.609V7.485h-5.61V4.443h6.145V1.12H15.07v16.376h10.022zm8.738.187c4.044 0 6.1-2.106 6.1-5.731V1.12h-3.88v10.62c0 1.545-.465 2.55-2.22 2.55-1.752 0-2.217-1.005-2.217-2.55V1.121h-3.88v10.832c0 3.625 2.056 5.731 6.097 5.731zm8.203-16.563v3.556h4.25v12.82h3.88V4.677h4.229V1.12H42.03zm19.367 16.563c4.229 0 6.098-1.966 6.098-5.123 0-5.918-7.593-4.632-7.593-6.995 0-.772.584-1.263 1.846-1.263 1.192 0 2.36.396 3.668 1.169l1.613-2.806C65.769 1.824 63.97.934 61.586.934c-3.551 0-5.468 1.707-5.468 4.772 0 5.778 7.548 4.047 7.548 6.994 0 .82-.632 1.568-2.15 1.568-1.262 0-2.64-.399-4.557-1.286l-1.331 2.923c1.309.795 3.272 1.779 5.771 1.779zm7.57-6.013c0 3.603 2.08 6.013 6.262 6.013 3.41 0 4.859-1.545 5.747-3.603l-3.061-1.567c-.466 1.076-1.237 1.707-2.546 1.707-1.775 0-2.476-1.24-2.476-2.761V7.156c0-1.52.677-2.76 2.453-2.76 1.332 0 2.031.68 2.477 1.684l3.083-1.52C79.928 2.5 78.385.934 75.184.934c-4.183 0-6.214 2.41-6.214 6.013v4.724zm22.29 5.826h3.877V1.121H91.26v6.317h-4.58V1.12H82.8v16.376h3.88v-6.715h4.58v6.715z" mask="url(#d)"/>
        </g>
        <path fill="#53F20E" d="M115.538 7.824c0-3.8-3.088-6.89-6.881-6.89-3.796 0-6.884 3.09-6.884 6.89a6.898 6.898 0 0 0 6.194 6.855v2.792h1.377v-2.792a6.896 6.896 0 0 0 6.194-6.855m-6.194 5.465v-1.044l2.552-2.555-.974-.974-2.208 2.21-2.273-2.843-1.075.861 2.601 3.256v1.089a5.515 5.515 0 0 1-4.817-5.465c0-3.04 2.47-5.511 5.507-5.511a5.514 5.514 0 0 1 5.504 5.511 5.514 5.514 0 0 1-4.817 5.465"/>
    </g>
</svg>
